<?xml version="1.0" standalone="no"?>
<!DOCTYPE svg PUBLIC "-//W3C//DTD SVG 20010904//EN"
 "http://www.w3.org/TR/2001/REC-SVG-20010904/DTD/svg10.dtd">
<svg version="1.0" xmlns="http://www.w3.org/2000/svg"
 width="512.000000pt" height="512.000000pt" viewBox="0 0 512.000000 512.000000"
 preserveAspectRatio="xMidYMid meet">
<metadata>
Created by potrace 1.11, written by Peter Selinger 2001-2013
</metadata>
<g transform="translate(0.000000,512.000000) scale(0.100000,-0.100000)"
fill="#000000" stroke="none">
<path d="M2380 4855 l0 -255 -300 0 -300 0 0 -185 0 -185 300 0 300 0 0 -220
0 -220 -770 0 -770 0 0 -175 0 -175 770 0 770 0 0 -1080 0 -1080 -32 14 c-36
15 -106 47 -290 132 -64 30 -121 54 -126 54 -9 0 -156 -290 -150 -295 3 -3 97
-48 471 -227 l127 -61 0 -449 0 -448 185 0 185 0 2 358 3 359 110 -53 c312
-150 368 -175 375 -167 4 4 12 22 18 38 6 17 32 84 57 149 25 65 45 125 43
133 -2 7 -82 50 -178 94 -96 44 -231 106 -300 138 l-125 58 -3 1166 -2 1167
765 0 765 0 0 175 0 175 -765 0 -765 0 0 220 0 220 300 0 300 0 0 185 0 185
-300 0 -300 0 0 255 0 255 -185 0 -185 0 0 -255z"/>
</g>
</svg>
